<svg width="40" height="45" viewBox="0 0 40 45" fill="none" xmlns="http://www.w3.org/2000/svg">
<path d="M38.1075 0H1.46499C0.587261 0 -0.0712495 0.742736 0.00618856 1.62037L3.35304 39.1257C3.43057 40.0027 4.18909 40.9205 5.03985 41.1575L18.2336 44.8225C19.0832 45.0579 20.4719 45.0595 21.3228 44.8255L34.5328 41.1658C35.3838 40.9294 36.1423 40.0199 36.2197 39.1414L39.568 1.62037C39.6455 0.742736 38.9897 0 38.1075 0ZM31.7527 13.5384C31.7521 13.5441 31.7477 13.5486 31.742 13.5495C31.7363 13.5505 31.7307 13.5475 31.7282 13.5422L21.3913 17.7782C21.2441 17.8386 21.1602 17.9947 21.1907 18.1508C21.2215 18.3069 21.3584 18.4195 21.5176 18.4195H29.5581C29.9858 18.4195 30.3933 18.6012 30.6793 18.9193C30.9652 19.2373 31.1027 19.6619 31.0573 20.0871L29.801 31.8723C29.7393 32.4505 29.3508 32.9417 28.8022 33.1348L20.2679 36.1376C19.9465 36.2508 19.5961 36.2517 19.2739 36.14L10.7794 33.1976C10.2275 33.0064 9.83575 32.5137 9.77371 31.933L9.2042 26.5957C9.17428 26.3154 9.26481 26.0357 9.45315 25.8262C9.64158 25.6167 9.91003 25.497 10.1919 25.497H12.5556C13.0636 25.497 13.4896 25.8801 13.5433 26.385L13.8927 29.6657L19.7743 31.7102L25.6828 29.6471L26.4055 22.8431H9.69961C9.19321 22.8431 8.76787 22.4621 8.71233 21.9587L8.39426 19.075C8.34569 18.6351 8.59387 18.2163 9.00286 18.0477L19.6948 13.6396C19.8161 13.5896 19.885 13.461 19.8596 13.3323C19.8341 13.2038 19.7213 13.1111 19.5903 13.1111H8.33317C7.99426 13.1111 7.71003 12.8552 7.67466 12.5183L7.34903 9.41876C7.32944 9.23224 7.38995 9.0461 7.51548 8.90662C7.641 8.76723 7.81988 8.68759 8.00745 8.68759H31.5619C31.7505 8.68759 31.9302 8.76809 32.0558 8.90872C32.1814 9.04944 32.2411 9.23702 32.2197 9.4244L31.7527 13.5384Z" fill="#FF2E47"/>
</svg>
