<svg width="44" height="44" viewBox="0 0 44 44" fill="none" xmlns="http://www.w3.org/2000/svg">
<path d="M0 5C0 2.23858 2.23858 0 5 0H39C41.7614 0 44 2.23858 44 5V39C44 41.7614 41.7614 44 39 44H5C2.23858 44 0 41.7614 0 39V5Z" fill="#FF2E47"/>
<path d="M40.3989 33.506C40.0769 31.4984 38.7677 29.8129 34.8906 28.2403C33.5438 27.6213 32.0423 27.178 31.5947 26.1574C31.4358 25.5635 31.4149 25.2289 31.5153 24.8692C31.8039 23.7022 33.1966 23.3384 34.3008 23.673C35.0118 23.9114 35.6852 24.4593 36.0909 25.3334C37.9898 24.1038 37.9856 24.1121 39.3115 23.2673C38.8263 22.5145 38.567 22.1673 38.2491 21.8453C37.1073 20.5696 35.5514 19.9129 33.0628 19.9631C32.632 20.0175 32.1971 20.076 31.7662 20.1304C30.5241 20.4441 29.3404 21.0966 28.6461 21.9707C26.5632 24.3338 27.1571 28.4703 29.6917 30.1726C32.1887 32.0464 35.8567 32.473 36.3251 34.2255C36.781 36.3711 34.7484 37.0654 32.7282 36.8186C31.2392 36.5091 30.4111 35.7521 29.516 34.3761C27.8682 35.3297 27.8682 35.3297 26.1742 36.3042C26.5758 37.1825 26.9982 37.5799 27.6716 38.3411C30.8587 41.5742 38.8347 41.4152 40.2651 36.5217C40.3236 36.3543 40.7085 35.2334 40.3989 33.506ZM23.9198 20.2224H19.8042C19.8042 23.7775 19.7876 27.3076 19.7876 30.8627C19.7876 33.1254 19.9047 35.2 19.5366 35.8357C18.9343 37.0862 17.3742 36.9315 16.6632 36.6889C15.9396 36.3334 15.5716 35.8273 15.145 35.1121C15.0279 34.9072 14.94 34.7483 14.9107 34.7357C13.794 35.4175 12.6814 36.1033 11.5647 36.7851C12.121 37.927 12.9407 38.9182 13.9906 39.5623C15.559 40.5033 17.667 40.7919 19.8712 40.2859C21.3058 39.8676 22.5438 39.0019 23.1921 37.6844C24.129 35.957 23.9282 33.8657 23.9198 31.5528C23.9407 27.7802 23.9198 24.0076 23.9198 20.2224Z" fill="white"/>
</svg>
