<svg width="60" height="60" viewBox="0 0 60 60" fill="none" xmlns="http://www.w3.org/2000/svg">
<path d="M45.6 0H14.4C6.4471 0 0 6.4471 0 14.4V45.6C0 53.5529 6.4471 60 14.4 60H45.6C53.5529 60 60 53.5529 60 45.6V14.4C60 6.4471 53.5529 0 45.6 0Z" fill="#FFABB5"/>
<path fill-rule="evenodd" clip-rule="evenodd" d="M7.72684 41.4925C12.1027 45.5214 19.9071 43.6281 29.9988 43.6281C40.0909 43.6281 47.895 45.5214 52.2711 41.4925C55.9075 38.1446 54.1892 34.0583 55.3232 28.6272C51.5103 18.3752 41.6115 11.0682 29.9999 11.0682C18.387 11.0682 8.48716 18.3765 4.67529 28.6307C5.80821 34.0602 4.09101 38.145 7.72684 41.4925Z" fill="#FF2E47"/>
<path fill-rule="evenodd" clip-rule="evenodd" d="M36.9444 50.215C36.4449 51.5429 35.465 52.7096 34.2298 53.517C32.9948 54.3287 31.4917 54.7701 30 54.7674C28.5082 54.7701 27.0048 54.3287 25.7699 53.5173C24.5349 52.7098 23.5545 51.5429 23.0553 50.2153C22.7988 49.5341 23.1455 48.7749 23.8286 48.5194C24.3367 48.3297 24.888 48.4716 25.2426 48.837L25.3146 48.9121C25.988 49.6075 26.7222 50.1472 27.5171 50.5073C28.3098 50.869 29.1476 51.0485 29.9997 51.0504C30.8523 51.0485 31.6902 50.869 32.4829 50.507C33.2775 50.1472 34.0116 49.6075 34.685 48.9118L34.7563 48.8381C35.2631 48.3144 36.0995 48.2998 36.6247 48.805C37.0154 49.1802 37.1228 49.7383 36.9444 50.215Z" fill="#FF2E47"/>
<path fill-rule="evenodd" clip-rule="evenodd" d="M34.2301 52.4017C32.9951 53.2137 31.4918 53.6548 30.0003 53.6521C28.5086 53.6548 27.0052 53.2137 25.7702 52.4019C24.5657 51.6145 23.6048 50.4849 23.0948 49.1982C22.9509 49.5069 22.926 49.8711 23.0553 50.2153C23.5548 51.5429 24.5352 52.7099 25.7702 53.5172C27.0052 54.3287 28.5086 54.7701 30.0003 54.7674C31.4918 54.7701 32.9951 54.3287 34.2301 53.517C35.4651 52.7096 36.4452 51.5429 36.9447 50.215C37.0676 49.8867 37.0514 49.5209 36.9036 49.2015C36.3933 50.4871 35.4332 51.615 34.2301 52.4017Z" fill="#FF2E47"/>
<path fill-rule="evenodd" clip-rule="evenodd" d="M5.30859 23.9132C5.30859 27.7826 5.65878 32.5919 6.36702 34.7415C7.45512 38.0451 8.88258 39.4131 11.7743 40.5381C15.459 41.9717 23.316 42.9 29.9998 42.8609C36.6837 42.9 44.5409 41.9717 48.2254 40.5381C51.1171 39.4131 52.5446 38.0451 53.6329 34.7415C54.3412 32.5919 54.6911 27.7826 54.6911 23.9132C54.6911 20.0437 54.3412 15.2343 53.6329 13.0847C52.5446 9.78113 51.1171 8.41313 48.2254 7.28819C44.5409 5.85451 36.6837 4.92627 29.9998 4.9653C23.316 4.92627 15.459 5.85451 11.7743 7.28819C8.88258 8.41313 7.45512 9.78113 6.36702 13.0847C5.65878 15.2343 5.30859 20.0437 5.30859 23.9132Z" fill="#FF2E47"/>
<path fill-rule="evenodd" clip-rule="evenodd" d="M20.7122 30.4473C18.6002 30.4473 16.8884 28.7407 16.8884 26.6358V21.1905C16.8884 19.0856 18.6002 17.379 20.7122 17.379C22.8238 17.379 24.5359 19.0856 24.5359 21.1905V26.6358C24.5359 28.7407 22.8238 30.4473 20.7122 30.4473Z" fill="#FCFCFC"/>
<path fill-rule="evenodd" clip-rule="evenodd" d="M39.2852 30.4473C37.1735 30.4473 35.4614 28.7407 35.4614 26.6356V21.1905C35.4614 19.0854 37.1735 17.3788 39.2852 17.3788C41.3971 17.3788 43.1092 19.0854 43.1092 21.1905V26.6356C43.1092 28.7407 41.3971 30.4473 39.2852 30.4473Z" fill="#FCFCFC"/>
</svg>
