<svg width="100" height="38" viewBox="0 0 100 38" fill="none" xmlns="http://www.w3.org/2000/svg">
<g clip-path="url(#clip0_26_88)">
<path d="M24.0593 30.2461L28.437 31.5666C28.2019 32.6701 27.7134 33.7193 27.0441 34.6419C26.4291 35.4559 25.615 36.089 24.6925 36.5051C23.7518 36.9212 22.5579 37.1382 21.1107 37.1382C19.356 37.1382 17.9088 36.885 16.8053 36.3785C15.6838 35.872 14.725 34.9675 13.911 33.6831C13.0969 32.3987 12.699 30.7526 12.699 28.7446C12.699 26.0673 13.4045 24.0051 14.8336 22.576C16.2627 21.1469 18.2706 20.4233 20.8755 20.4233C22.9197 20.4233 24.5116 20.8394 25.6874 21.6534C26.8451 22.4856 27.7134 23.7518 28.2923 25.4523L23.8784 26.4291C23.7699 26.0492 23.6071 25.6694 23.39 25.3437C23.1187 24.9639 22.775 24.6744 22.3589 24.4573C21.9428 24.2403 21.4725 24.1498 21.0022 24.1498C19.8625 24.1498 18.9942 24.6021 18.3972 25.5246C17.945 26.194 17.7098 27.2613 17.7098 28.7084C17.7098 30.4993 17.9812 31.7294 18.5239 32.3987C19.0666 33.0681 19.8263 33.3937 20.8213 33.3937C21.78 33.3937 22.5036 33.1223 22.992 32.5977C23.4805 32.0369 23.8422 31.2591 24.0593 30.2461ZM34.28 20.6947H39.2728V26.3568H44.7359V20.6947H49.7648V36.8669H44.7359V30.3184H39.2728V36.8669H34.28V20.6947Z" fill="#FF2E47"/>
<path d="M87.2105 20.6947H92.2032V32.8872H99.9999V36.8669H87.1924V20.6947H87.2105Z" fill="#FF2E47"/>
<path d="M70.9841 11.089L72.7931 9.82274L75.0181 12.9884C75.398 13.495 75.6875 14.0377 75.9045 14.6346C76.0312 15.0869 75.995 15.5753 75.8141 16.0094C75.5789 16.5521 75.199 17.0044 74.6925 17.33C74.0956 17.746 73.589 17.9812 73.1549 18.0536C72.7388 18.1259 72.3047 18.0536 71.9067 17.8727C71.4725 17.6556 71.0927 17.3481 70.8032 16.9501L72.3589 15.5029C72.4856 15.7019 72.6484 15.8828 72.8293 16.0275C72.9559 16.118 73.1006 16.1722 73.2634 16.1722C73.3901 16.1722 73.5167 16.118 73.6071 16.0456C73.788 15.9371 73.9147 15.72 73.8966 15.5029C73.8423 15.1954 73.7157 14.8879 73.5167 14.6527L70.9841 11.089ZM76.411 13.097L78.0572 11.7945C78.2381 12.0116 78.4733 12.1744 78.7265 12.2649C79.0883 12.3734 79.4682 12.301 79.7757 12.0659C79.9928 11.9212 80.1737 11.7222 80.2461 11.4689C80.3546 11.1433 80.1737 10.7815 79.8481 10.673C79.7938 10.6549 79.7395 10.6368 79.6853 10.6368C79.4682 10.6187 79.0883 10.7091 78.5275 10.9443C77.605 11.3242 76.8814 11.4689 76.3387 11.4146C75.8141 11.3604 75.3257 11.089 75.0362 10.6368C74.8191 10.3293 74.7106 9.96746 74.6925 9.60567C74.6925 9.1896 74.8011 8.77354 75.0362 8.42983C75.3799 7.94141 75.796 7.52535 76.3025 7.19973C77.0623 6.67513 77.7316 6.42188 78.3105 6.42188C78.8893 6.42188 79.432 6.69322 79.9385 7.254L78.3105 8.53837C77.9848 8.12231 77.3698 8.03186 76.9537 8.35748L76.8995 8.41174C76.7186 8.52028 76.5919 8.68309 76.5196 8.88208C76.4653 9.0268 76.5015 9.1896 76.5919 9.31623C76.6643 9.40668 76.7728 9.47904 76.8995 9.47904C77.0442 9.49713 77.2974 9.42477 77.6592 9.26196C78.5637 8.88208 79.2511 8.665 79.7215 8.59264C80.1194 8.52028 80.5355 8.55646 80.9154 8.71927C81.2591 8.86399 81.5485 9.11724 81.7475 9.42477C82.0008 9.78656 82.1455 10.2207 82.1636 10.673C82.1817 11.1433 82.055 11.5955 81.8018 11.9935C81.4762 12.4819 81.0601 12.898 80.5717 13.2236C79.5767 13.911 78.7627 14.2005 78.1115 14.0919C77.406 13.9834 76.8271 13.6216 76.411 13.097Z" fill="#FF2E47"/>
<path d="M81.7075 19.7613C86.7342 15.9733 88.2842 9.55208 85.1697 5.41906C82.0551 1.28603 75.4553 1.00633 70.4287 4.79432C65.4021 8.5823 63.852 15.0036 66.9666 19.1366C70.0811 23.2696 76.6809 23.5493 81.7075 19.7613Z" stroke="#FF2E47" stroke-width="4" stroke-miterlimit="10"/>
<path d="M51.6281 12.3011L56.3857 11.9935C56.4942 12.7714 56.6932 13.3503 57.0188 13.7663C57.5434 14.4176 58.267 14.7432 59.2258 14.7432C59.9313 14.7432 60.492 14.5804 60.8719 14.2367C61.2337 13.9653 61.4508 13.5312 61.4508 13.0789C61.4508 12.6448 61.2518 12.2287 60.9081 11.9574C60.5463 11.6317 59.6961 11.3061 58.3575 11.0167C56.1686 10.5283 54.5948 9.87704 53.6722 9.04491C52.7496 8.26705 52.225 7.1274 52.2612 5.91539C52.2612 5.08326 52.5145 4.25113 52.9848 3.56372C53.5275 2.78587 54.2692 2.17081 55.1556 1.82711C56.1143 1.41105 57.453 1.19397 59.1353 1.19397C61.1975 1.19397 62.7713 1.57385 63.8567 2.35171C64.9421 3.11148 65.5933 4.34158 65.7923 6.02393L61.089 6.29527C60.9624 5.57168 60.7091 5.04708 60.2931 4.70338C59.877 4.35967 59.3343 4.19686 58.6288 4.19686C58.0499 4.19686 57.6158 4.32349 57.3263 4.55866C57.055 4.77574 56.8741 5.10135 56.8922 5.46314C56.8922 5.73449 57.0369 5.98775 57.254 6.15055C57.4891 6.36763 58.0499 6.56662 58.9363 6.74752C61.1252 7.21785 62.6809 7.68818 63.6397 8.1766C64.5984 8.66503 65.2858 9.26199 65.7019 9.96749C66.136 10.6911 66.3531 11.5232 66.335 12.3734C66.335 13.3864 66.0456 14.3995 65.4667 15.2497C64.8698 16.1361 64.0376 16.8235 63.0608 17.2396C62.0297 17.6918 60.7272 17.927 59.1715 17.927C56.4219 17.927 54.5224 17.4024 53.4551 16.3351C52.3878 15.2678 51.7547 13.9291 51.6281 12.3011ZM1.13965 17.6556V1.48341H9.47902C11.0166 1.48341 12.2106 1.61003 13.0246 1.88138C13.8205 2.13464 14.526 2.65924 14.9964 3.36474C15.521 4.1426 15.7742 5.04708 15.7562 5.98775C15.8104 7.57964 14.9964 9.09918 13.6035 9.89513C13.0608 10.2027 12.4638 10.4197 11.8488 10.5283C12.301 10.6549 12.7533 10.872 13.1512 11.1252C13.4588 11.3785 13.712 11.6679 13.9472 11.9754C14.2185 12.283 14.4537 12.6267 14.6527 12.9885L17.0767 17.6737H11.3965L8.71925 12.699C8.37554 12.0659 8.08611 11.6498 7.81476 11.4508C7.45297 11.1976 7.01881 11.071 6.58466 11.071H6.15051V17.6375H1.13965V17.6556ZM6.15051 8.03189H8.267C8.71925 7.99571 9.1534 7.92335 9.58755 7.81481C9.91317 7.76054 10.2026 7.57964 10.4016 7.3083C10.89 6.65707 10.8177 5.73449 10.2207 5.17371C9.89508 4.90236 9.26194 4.75765 8.35745 4.75765H6.15051V8.03189ZM0 31.5123L4.7576 31.2048C4.86614 31.9827 5.06512 32.5616 5.39074 32.9776C5.89725 33.6288 6.63893 33.9725 7.59768 33.9725C8.30318 33.9725 8.86397 33.8097 9.24385 33.466C9.60564 33.1766 9.82272 32.7605 9.82272 32.3083C9.82272 31.8741 9.62373 31.4581 9.28003 31.1867C8.91823 30.8611 8.06802 30.5355 6.71129 30.2461C4.52243 29.7576 2.94863 29.1064 2.02605 28.2743C1.10347 27.4964 0.578871 26.3568 0.615051 25.1448C0.615051 24.3126 0.868307 23.4805 1.33864 22.7931C1.88133 22.0152 2.62301 21.4002 3.50941 21.0565C4.46816 20.6404 5.8068 20.4233 7.48915 20.4233C9.55138 20.4233 11.1252 20.8032 12.2106 21.5811C13.2959 22.3589 13.9291 23.571 14.1281 25.2533L9.42475 25.5247C9.29812 24.8011 9.04486 24.2765 8.6288 23.9328C8.23083 23.5891 7.67004 23.4262 6.96454 23.4443C6.38567 23.4443 5.95152 23.571 5.66208 23.8242C5.37265 24.0413 5.20984 24.3669 5.22793 24.7287C5.22793 25 5.37265 25.2533 5.58973 25.4161C5.82489 25.6332 6.38567 25.8322 7.27207 26.0131C9.46093 26.4834 11.0166 26.9537 11.9754 27.4422C12.9342 27.9306 13.6216 28.5275 14.0376 29.233C14.4718 29.9566 14.6889 30.7888 14.6889 31.6209C14.6889 32.6339 14.3813 33.6288 13.8205 34.4791C13.2236 35.3655 12.3915 36.0529 11.4146 36.4689C10.3835 36.9212 9.08104 37.1563 7.52533 37.1563C4.77569 37.1563 2.87627 36.6317 1.80897 35.5644C0.741679 34.4791 0.144718 33.1404 0 31.5123H0Z" fill="#FF2E47"/>
<path d="M49.0774 28.7807C49.0774 26.1396 49.8191 24.0774 51.2843 22.6121C52.7496 21.1468 54.8118 20.4052 57.4348 20.4052C60.1302 20.4052 62.1924 21.1287 63.6577 22.5759C65.123 24.0231 65.8466 26.0491 65.8466 28.6541C65.8466 30.5535 65.521 32.0911 64.8878 33.3031C64.2728 34.497 63.314 35.4739 62.1382 36.1251C60.9262 36.7944 59.4247 37.1381 57.6338 37.1381C55.8068 37.1381 54.3053 36.8487 53.1114 36.2698C51.8813 35.6548 50.8683 34.696 50.199 33.5202C49.4573 32.2539 49.0774 30.6801 49.0774 28.7807ZM54.0702 28.7988C54.0702 30.4269 54.3777 31.6027 54.9746 32.3263C55.5716 33.0318 56.4037 33.3936 57.4529 33.3936C58.5202 33.3936 59.3524 33.0499 59.9493 32.3444C60.5463 31.6389 60.8357 30.3907 60.8357 28.5817C60.8357 27.0622 60.5282 25.9406 59.9131 25.2532C59.2981 24.5477 58.466 24.204 57.4168 24.204C56.4942 24.1678 55.6078 24.5658 54.9927 25.2713C54.3777 25.9768 54.0702 27.1526 54.0702 28.7988ZM70.966 28.7807C70.966 26.1396 71.7076 24.0774 73.1729 22.6121C74.6382 21.1468 76.7004 20.4052 79.3234 20.4052C82.0188 20.4052 84.0991 21.1287 85.5463 22.5759C86.9935 24.0231 87.7351 26.0491 87.7351 28.6541C87.7351 30.5535 87.4095 32.0911 86.7764 33.3031C86.1613 34.497 85.2026 35.4739 84.0267 36.1251C82.8147 36.7944 81.3133 37.1381 79.5224 37.1381C77.6953 37.1381 76.1939 36.8487 75 36.2698C73.7699 35.6548 72.7568 34.696 72.0875 33.5202C71.3458 32.2539 70.966 30.6801 70.966 28.7807ZM75.9587 28.7988C75.9587 30.4269 76.2663 31.6027 76.8632 32.3263C77.4602 33.0318 78.2923 33.3936 79.3415 33.3936C80.4088 33.3936 81.2409 33.0499 81.8379 32.3444C82.4348 31.6389 82.7243 30.3907 82.7243 28.5817C82.7243 27.0622 82.4168 25.9406 81.8017 25.2532C81.1867 24.5477 80.3545 24.204 79.3053 24.204C78.3827 24.1678 77.4783 24.5658 76.8813 25.2713C76.2663 25.9768 75.9587 27.1526 75.9587 28.7988Z" fill="#FF2E47"/>
</g>
<defs>
<clipPath id="clip0_26_88">
<rect width="100" height="37.1382" fill="white"/>
</clipPath>
</defs>
</svg>
