<svg width="34" height="35" viewBox="0 0 34 35" fill="none" xmlns="http://www.w3.org/2000/svg">
<path d="M20.6816 31.9784C20.7279 31.9809 20.7737 31.9853 20.8207 31.9853H31.4171C32.6566 31.9853 33.6648 30.9765 33.6648 29.7376V5.1732C33.6648 3.93411 32.6566 2.92548 31.4171 2.92548H20.8207C20.774 2.92548 20.7279 2.93002 20.6816 2.93223V0L0 2.76013V32.1685L20.6816 35V31.9784ZM20.6816 4.22371C20.7273 4.21725 20.7731 4.20991 20.8207 4.20991H31.4171C31.9484 4.20991 32.3804 4.64215 32.3804 5.1732V29.7376C32.3804 30.2685 31.9484 30.7009 31.4171 30.7009H20.8207C20.7734 30.7009 20.7273 30.6933 20.6816 30.6864V4.22371ZM5.19363 19.2285C5.62868 19.236 6.11343 19.1438 6.40088 19.0278L6.62274 20.2307C6.35369 20.3648 5.75162 20.4997 4.97709 20.479C2.82488 20.421 1.74427 18.9851 1.74427 17.121C1.74427 14.889 3.22541 13.6073 5.1177 13.5568C5.86595 13.5373 6.43977 13.6837 6.70021 13.8179L6.40088 15.0425C6.10423 14.9165 5.69546 14.8031 5.18419 14.8111C4.05388 14.8307 3.18921 15.5618 3.18921 17.0344C3.18891 18.3598 3.92425 19.2071 5.19363 19.2285ZM9.22522 20.5925C8.45882 20.5717 7.71069 20.3485 7.34022 20.1271L7.64236 18.8534C8.04432 19.0735 8.66694 19.298 9.31554 19.3093C10.021 19.3212 10.3966 19.0271 10.3966 18.5706C10.3966 18.1353 10.0718 17.8845 9.25521 17.5809C8.14252 17.1789 7.42725 16.5487 7.42725 15.5551C7.42725 14.3886 8.36922 13.4719 9.96027 13.4297C10.7335 13.4094 11.3099 13.5614 11.7238 13.7396L11.3712 15.032C11.0936 14.9003 10.6012 14.711 9.92956 14.722C9.26543 14.7327 8.94572 15.0464 8.94572 15.405C8.94572 15.8459 9.32516 16.0386 10.2038 16.3734C11.4236 16.8275 12.0054 17.4774 12.0054 18.4745C12.0057 19.6593 11.1037 20.6426 9.22522 20.5925ZM14.8597 20.7424C14.0273 20.7203 13.216 20.4871 12.8139 20.2557L13.1418 18.9305C13.5775 19.1594 14.2537 19.394 14.9572 19.4059C15.7232 19.4191 16.1313 19.1124 16.1313 18.6373C16.1313 18.1832 15.7781 17.9214 14.8914 17.6048C13.6848 17.1853 12.9083 16.53 12.9083 15.4953C12.9083 14.2813 13.9307 13.3254 15.6573 13.2798C16.4975 13.2574 17.1228 13.4146 17.574 13.6002L17.1909 14.9479C16.8881 14.8111 16.3531 14.6142 15.6243 14.6261C14.9036 14.6381 14.5562 14.9649 14.5562 15.3387C14.5562 15.7978 14.9682 15.9985 15.9214 16.3472C17.2472 16.8208 17.8794 17.4981 17.8794 18.5373C17.8794 19.7728 16.8992 20.7969 14.8597 20.7424Z" fill="#FF2E47"/>
<path d="M21.8907 18.4941C21.8907 18.8729 21.8347 19.2505 21.7785 19.6293C21.7221 20.0087 21.6656 20.4 21.6656 20.7788C21.6656 22.1937 22.5348 22.6999 23.6988 22.6999H23.993V21.9278H23.7408C22.9559 21.9278 22.6333 21.4932 22.6333 20.7093C22.6333 20.3725 22.6756 20.0495 22.7315 19.699C22.7876 19.3634 22.8296 19.0134 22.8296 18.634C22.844 17.7372 22.4511 17.2602 21.8203 17.1058V17.0788C22.4512 16.9103 22.844 16.4609 22.8296 15.5641C22.8296 15.1866 22.7876 14.8498 22.7315 14.4994C22.6756 14.1626 22.6333 13.8263 22.6333 13.504C22.6333 12.7472 22.9133 12.2992 23.7408 12.2992H23.993V11.5273H23.6988C22.5072 11.5273 21.6656 12.0742 21.6656 13.3644C21.6656 13.757 21.722 14.1357 21.7785 14.5284C21.8346 14.9198 21.8907 15.3116 21.8907 15.7048C21.8907 16.1952 21.7506 16.742 20.7556 16.742V17.4563C21.7506 17.4563 21.8907 18.0589 21.8907 18.4941Z" fill="#FF2E47"/>
<path d="M29.9958 20.7786C29.9958 20.3998 29.9397 20.0085 29.8831 19.6291C29.8273 19.2503 29.7708 18.8728 29.7708 18.4939C29.7708 18.0587 29.9116 17.4561 30.9067 17.4561V16.7418C29.9114 16.7418 29.7708 16.195 29.7708 15.7046C29.7708 15.3112 29.8273 14.9195 29.8831 14.5282C29.9396 14.1354 29.9958 13.7568 29.9958 13.3642C29.9958 12.074 29.1403 11.5271 27.949 11.5271H27.6687V12.299H27.9211C28.7345 12.3121 29.0288 12.747 29.0288 13.5037C29.0288 13.8261 28.972 14.1624 28.9305 14.4992C28.8734 14.8499 28.8176 15.1867 28.8176 15.5639C28.8176 16.4608 29.2102 16.9098 29.8273 17.0786V17.1055C29.2102 17.2597 28.8176 17.7369 28.8176 18.6338C28.8176 19.0135 28.8734 19.3632 28.9305 19.6987C28.9719 20.0492 29.0288 20.3722 29.0288 20.709C29.0288 21.4929 28.6916 21.9144 27.9074 21.9276H27.6688V22.6996H27.9633C29.1127 22.6997 29.9958 22.1935 29.9958 20.7786Z" fill="#FF2E47"/>
</svg>
