<svg width="35" height="35" viewBox="0 0 35 35" fill="none" xmlns="http://www.w3.org/2000/svg">
<path d="M31.0775 23.5345V8.435C31.0775 7.97276 31.022 7.6306 30.7456 7.35362L23.7233 0.331897C23.5127 0.121293 23.2206 0 22.9219 0H5.40866C4.69297 0 3.92236 0.552759 3.92236 1.76569V23.5345H31.0775ZM22.6293 2.04629C22.6293 1.76991 22.963 1.63172 23.1585 1.82724L29.2503 7.91905C29.4458 8.11457 29.3076 8.44828 29.0312 8.44828H22.6293V2.04629ZM20.9957 11.2887C20.7598 11.0528 20.7598 10.6714 20.9957 10.4354C21.2317 10.1995 21.6131 10.1995 21.849 10.4354L25.4697 14.0561C25.7056 14.2921 25.7056 14.6734 25.4697 14.9094L21.849 18.5301C21.7313 18.6478 21.5768 18.7069 21.4224 18.7069C21.2679 18.7069 21.1134 18.6478 20.9957 18.5301C20.7598 18.2941 20.7598 17.9128 20.9957 17.6768L24.1898 14.4828L20.9957 11.2887ZM10.1337 14.0561L13.7543 10.4354C13.9903 10.1995 14.3717 10.1995 14.6076 10.4354C14.8436 10.6714 14.8436 11.0528 14.6076 11.2887L11.4136 14.4828L14.6076 17.6768C14.8436 17.9128 14.8436 18.2941 14.6076 18.5301C14.4899 18.6478 14.3355 18.7069 14.181 18.7069C14.0265 18.7069 13.872 18.6478 13.7543 18.5301L10.1337 14.9094C9.89771 14.6734 9.89771 14.2921 10.1337 14.0561Z" fill="#FF2E47"/>
<path d="M3.92236 24.7415V33.7932C3.92236 34.4021 4.65857 35.0001 5.40866 35.0001H29.5912C30.3413 35.0001 31.0775 34.4021 31.0775 33.7932V24.7415H3.92236ZM11.1366 32.5863H10.1463V29.8472H7.51469V32.5863H6.50814V26.5059H7.51469V29.1708H10.1463V26.5059H11.1366V32.5863ZM16.9611 27.1824H15.1465V32.5863H14.1484V27.1824H12.3332V26.5059H16.9617V27.1824H16.9611ZM23.7595 32.5863H22.753V28.4032L21.3916 31.7855H20.5172L19.1474 28.4032V32.5863H18.1408V26.5059H19.1474L20.9541 30.6643L22.7524 26.5059H23.7589V32.5863H23.7595ZM29.0892 32.5863H25.2856V26.5059H26.2922V31.8356H29.0892V32.5863Z" fill="#FF2E47"/>
</svg>
