<svg width="43" height="33" viewBox="0 0 43 33" fill="none" xmlns="http://www.w3.org/2000/svg">
<g clip-path="url(#clip0_17_40)">
<path d="M36.0627 2.93868C33.3475 1.69284 30.4359 0.774961 27.3916 0.249253C27.3362 0.239107 27.2808 0.264462 27.2522 0.315174C26.8778 0.981181 26.463 1.85004 26.1725 2.53296C22.8982 2.04276 19.6407 2.04276 16.4335 2.53296C16.143 1.83486 15.7132 0.981181 15.337 0.315174C15.3085 0.266154 15.2531 0.240799 15.1976 0.249253C12.155 0.773281 9.24342 1.69116 6.52656 2.93868C6.50304 2.94882 6.48288 2.96574 6.4695 2.9877C0.94677 11.2385 -0.566137 19.2866 0.176045 27.2348C0.179403 27.2737 0.201231 27.3109 0.231456 27.3346C3.8752 30.0104 7.40478 31.6349 10.8688 32.7117C10.9243 32.7286 10.983 32.7083 11.0183 32.6627C11.8377 31.5437 12.5681 30.3638 13.1944 29.123C13.2314 29.0503 13.1961 28.9641 13.1206 28.9354C11.962 28.4959 10.8587 27.96 9.79752 27.3515C9.71358 27.3025 9.70686 27.1824 9.78408 27.1249C10.0074 26.9576 10.2308 26.7835 10.444 26.6077C10.4826 26.5756 10.5364 26.5688 10.5817 26.5891C17.5535 29.7721 25.1012 29.7721 31.9907 26.5891C32.0361 26.5671 32.0899 26.5739 32.1301 26.606C32.3434 26.7818 32.5667 26.9576 32.7917 27.1249C32.869 27.1824 32.8639 27.3025 32.78 27.3515C31.7188 27.9718 30.6155 28.4959 29.4553 28.9337C29.3797 28.9624 29.3461 29.0503 29.3831 29.123C30.0228 30.362 30.7532 31.5419 31.5575 32.661C31.5911 32.7083 31.6516 32.7286 31.707 32.7117C35.1878 31.6349 38.7174 30.0104 42.3611 27.3346C42.3931 27.3109 42.4132 27.2754 42.4166 27.2365C43.3048 18.0475 40.9288 10.0654 36.1181 2.98938C36.1063 2.96574 36.0862 2.94882 36.0627 2.93868ZM14.2355 22.3952C12.1366 22.3952 10.4071 20.4682 10.4071 18.1016C10.4071 15.735 12.103 13.808 14.2355 13.808C16.3848 13.808 18.0976 15.7519 18.064 18.1016C18.064 20.4682 16.368 22.3952 14.2355 22.3952ZM28.3907 22.3952C26.2918 22.3952 24.5623 20.4682 24.5623 18.1016C24.5623 15.735 26.2582 13.808 28.3907 13.808C30.54 13.808 32.2527 15.7519 32.2192 18.1016C32.2192 20.4682 30.54 22.3952 28.3907 22.3952Z" fill="#FF586C"/>
</g>
<defs>
<clipPath id="clip0_17_40">
<rect width="42.6" height="33" fill="white"/>
</clipPath>
</defs>
</svg>
