<svg width="36" height="36" viewBox="0 0 36 36" fill="none" xmlns="http://www.w3.org/2000/svg">
<path d="M17.9844 0.98047C8.32422 0.976564 0.5 8.79688 0.5 18.4492C0.5 26.082 5.39453 32.5703 12.2109 34.9531C13.1289 35.1836 12.9883 34.5312 12.9883 34.0859V31.0586C7.6875 31.6797 7.47266 28.1719 7.11719 27.5859C6.39844 26.3594 4.69922 26.0469 5.20703 25.4609C6.41406 24.8398 7.64453 25.6172 9.07031 27.7227C10.1016 29.25 12.1133 28.9922 13.1328 28.7383C13.3555 27.8203 13.832 27 14.4883 26.3633C8.99609 25.3789 6.70703 22.0273 6.70703 18.043C6.70703 16.1094 7.34375 14.332 8.59375 12.8984C7.79688 10.5352 8.66797 8.51172 8.78516 8.21094C11.0547 8.00781 13.4141 9.83594 13.5977 9.98047C14.8867 9.63281 16.3594 9.44922 18.0078 9.44922C19.6641 9.44922 21.1406 9.64063 22.4414 9.99219C22.8828 9.65625 25.0703 8.08594 27.1797 8.27735C27.293 8.57813 28.1445 10.5547 27.3945 12.8867C28.6602 14.3242 29.3047 16.1172 29.3047 18.0547C29.3047 22.0469 27 25.4023 21.4922 26.3711C21.9639 26.835 22.3385 27.3883 22.5941 27.9987C22.8496 28.609 22.981 29.2641 22.9805 29.9258V34.3203C23.0117 34.6719 22.9805 35.0195 23.5664 35.0195C30.4844 32.6875 35.4648 26.1523 35.4648 18.4531C35.4648 8.79688 27.6367 0.98047 17.9844 0.98047Z" fill="#139FEC"/>
</svg>
