<svg width="35" height="35" viewBox="0 0 35 35" fill="none" xmlns="http://www.w3.org/2000/svg">
<path fill-rule="evenodd" clip-rule="evenodd" d="M18.9539 15.7192V15.6681C18.9435 15.6852 18.929 15.7024 18.9199 15.7192H18.9539Z" fill="#268ADB"/>
<path fill-rule="evenodd" clip-rule="evenodd" d="M0 0V35H35V0H0ZM10.8863 29.0771H5.69354V13.4543H10.8863V29.0771ZM8.28992 11.322H8.25562C6.51369 11.322 5.38462 10.1219 5.38462 8.62192C5.38462 7.089 6.54669 5.92292 8.32392 5.92292C10.1015 5.92292 11.1939 7.089 11.2279 8.62192C11.2279 10.1219 10.1015 11.322 8.28992 11.322ZM29.6154 29.0771H24.4212V20.7188C24.4212 18.6195 23.6708 17.1865 21.7908 17.1865C20.3552 17.1865 19.502 18.1514 19.1262 19.086C18.9895 19.4198 18.9538 19.8839 18.9538 20.3521V29.0772H13.7587C13.7587 29.0772 13.8283 14.92 13.7587 13.4544H18.9538V15.6682C19.6441 14.6061 20.8758 13.0876 23.6351 13.0876C27.0533 13.0876 29.6154 15.3199 29.6154 20.1182V29.0771Z" fill="#268ADB"/>
</svg>
