<svg width="35" height="35" viewBox="0 0 35 35" fill="none" xmlns="http://www.w3.org/2000/svg">
<path d="M17.1879 0.147766C21.9248 0.176767 25.9656 1.73315 29.3393 4.91359C32.7034 8.09403 34.5402 12.0382 34.7625 16.6686C34.9945 21.6181 33.4091 25.9489 29.9774 29.5354C26.6036 33.0638 22.4371 34.8812 17.5456 34.9296C12.9925 34.9779 9.00001 33.4505 5.65523 30.3668C1.7111 26.7223 -0.183628 22.1595 0.0193785 16.7943C0.183717 12.2992 1.91411 8.43237 5.09454 5.2616C8.44899 1.90716 12.5478 0.234769 17.1879 0.147766Z" fill="#1A68B7"/>
<path d="M12.0451 19.8877C11.0978 19.5977 10.1407 19.2981 9.19338 19.0081C8.72937 18.863 8.26535 18.718 7.80134 18.573C7.62733 18.515 7.46299 18.457 7.31799 18.3507C7.04731 18.1477 7.02798 17.8963 7.25999 17.645C7.41466 17.471 7.608 17.355 7.82067 17.268C8.38136 17.0457 8.94204 16.8233 9.50273 16.601C13.3695 15.1123 17.2363 13.6139 21.1128 12.1252C22.3405 11.6515 23.5585 11.1778 24.7862 10.7041C24.9506 10.6364 25.1246 10.5978 25.3082 10.6268C25.6756 10.6848 25.9559 10.9845 25.9946 11.3711C26.0139 11.5838 26.0043 11.7965 25.9656 12.0092C25.4919 14.2326 25.0182 16.4656 24.5445 18.689C24.1579 20.5258 23.7615 22.3625 23.3748 24.2089C23.2878 24.6246 23.2008 25.0402 23.1138 25.4559C23.0752 25.6589 23.0172 25.8523 22.9205 26.0359C22.7272 26.3936 22.4178 26.529 22.0215 26.4516C21.7798 26.4033 21.5671 26.297 21.3738 26.152C20.0397 25.1659 18.7057 24.1702 17.362 23.1842C17.304 23.1359 17.2363 23.0972 17.1783 23.0585C16.9463 22.9909 16.782 22.8168 16.5983 22.6815C15.9603 22.2175 15.3222 21.7341 14.6842 21.2701C14.6359 21.2315 14.5876 21.1928 14.5489 21.1445C14.4909 21.0478 14.5489 20.9898 14.6069 20.9318C15.4769 20.1584 16.3373 19.3657 17.2073 18.5924C17.8357 18.022 18.4737 17.4517 19.102 16.8813C19.7304 16.311 20.3587 15.7503 20.9871 15.1896C21.4801 14.7449 21.9731 14.3099 22.4565 13.8652C22.4951 13.8265 22.5338 13.7879 22.5725 13.7492C22.6015 13.7105 22.6402 13.6719 22.6208 13.6235C22.6015 13.5655 22.5435 13.5655 22.4951 13.5655C22.3211 13.5462 22.1761 13.6139 22.0311 13.7009C21.4995 14.0199 20.9871 14.3582 20.4651 14.6869C18.8797 15.6826 17.2846 16.688 15.6993 17.6837C14.6069 18.37 13.5145 19.0564 12.4222 19.7524C12.2965 19.8201 12.2095 19.9458 12.0451 19.8877Z" fill="#FCFDFE"/>
<path d="M12.0452 19.8877C12.3062 19.7814 12.5285 19.6074 12.7702 19.4624C13.4662 19.0274 14.1622 18.5924 14.8583 18.1477C15.3513 17.8383 15.8346 17.5193 16.3276 17.21C17.1397 16.6976 17.9614 16.1853 18.7831 15.6729C19.3534 15.3153 19.9238 14.9479 20.5038 14.5806C21.0065 14.2616 21.5091 13.9425 22.0118 13.6235C22.1762 13.5269 22.3405 13.4689 22.5435 13.4882C22.6015 13.4979 22.6595 13.4979 22.6788 13.5559C22.7078 13.6139 22.6885 13.6719 22.6402 13.7299C22.5242 13.8459 22.4178 13.9716 22.2825 14.0779C22.0408 14.2712 21.8282 14.4936 21.5961 14.6966C21.2191 15.0156 20.8711 15.3636 20.4941 15.6826C20.3394 15.8179 20.1944 15.9629 20.0398 16.0983C19.8174 16.282 19.6047 16.5043 19.3921 16.6976C19.0634 16.9973 18.7251 17.2873 18.3964 17.5773C18.2514 17.7127 18.0967 17.848 17.9614 17.9833C17.6037 18.3217 17.2267 18.6407 16.869 18.979C16.434 19.3754 15.9893 19.7621 15.5639 20.1681C15.2546 20.4581 14.9259 20.7288 14.6069 21.0091C14.5586 21.0478 14.5586 21.0864 14.5876 21.1348C14.5199 22.2272 14.4426 23.3195 14.3749 24.4119C14.3556 24.7019 14.3169 24.9822 14.3266 25.2723C14.3266 25.3593 14.3266 25.4366 14.2589 25.5043C14.2009 25.5236 14.1332 25.5236 14.0752 25.5236C13.9012 25.5139 13.7756 25.4269 13.7272 25.2626C13.6789 25.0886 13.6209 24.9242 13.5725 24.7502C13.0989 23.1939 12.6252 21.6278 12.1515 20.0714C12.1032 20.0037 12.0742 19.9457 12.0452 19.8877Z" fill="#CCD9E9"/>
<path d="M14.2298 25.4946C14.2008 25.1176 14.2685 24.7406 14.2782 24.3732C14.2975 23.9672 14.3362 23.5612 14.3555 23.1552C14.3845 22.7395 14.4135 22.3238 14.4425 21.9178C14.4522 21.7051 14.4715 21.4925 14.4715 21.2895C14.4715 21.2218 14.4908 21.1735 14.5585 21.1348C15.3415 21.7148 16.1246 22.2852 16.8979 22.8652C16.9849 22.9328 17.0816 22.9812 17.1493 23.0682C16.4242 23.7739 15.6895 24.4796 14.9645 25.1853C14.7712 25.3786 14.5392 25.5333 14.2298 25.4946Z" fill="#B1C8DB"/>
</svg>
