<svg width="60" height="46" viewBox="0 0 60 46" fill="none" xmlns="http://www.w3.org/2000/svg">
<path d="M50.0871 3.73838C46.316 2.00805 42.2721 0.733213 38.0439 0.00306288C37.9669 -0.0110288 37.89 0.0241871 37.8503 0.0946204C37.3302 1.01963 36.7542 2.22638 36.3507 3.17488C31.8031 2.49405 27.2787 2.49405 22.8243 3.17488C22.4208 2.2053 21.8238 1.01963 21.3014 0.0946204C21.2617 0.0265371 21.1848 -0.00867878 21.1078 0.00306288C16.882 0.73088 12.8381 2.00571 9.06467 3.73838C9.032 3.75246 9.004 3.77596 8.98542 3.80646C1.31496 15.266 -0.786301 26.4438 0.244507 37.483C0.249171 37.537 0.279488 37.5887 0.321467 37.6215C5.38222 41.338 10.2844 43.5943 15.0956 45.0898C15.1726 45.1133 15.2542 45.0851 15.3032 45.0217C16.4412 43.4675 17.4557 41.8288 18.3256 40.1055C18.3769 40.0045 18.3279 39.8848 18.223 39.8449C16.6138 39.2345 15.0816 38.4902 13.6077 37.645C13.4911 37.577 13.4818 37.4102 13.589 37.3304C13.8992 37.098 14.2094 36.8561 14.5056 36.612C14.5592 36.5674 14.6338 36.558 14.6968 36.5861C24.3798 41.007 34.8628 41.007 44.4316 36.5861C44.4946 36.5556 44.5693 36.565 44.6252 36.6096C44.9214 36.8538 45.2316 37.098 45.5441 37.3304C45.6513 37.4102 45.6443 37.577 45.5277 37.645C44.0538 38.5066 42.5216 39.2345 40.9101 39.8425C40.8052 39.8825 40.7585 40.0045 40.8098 40.1055C41.6983 41.8264 42.7128 43.4651 43.8299 45.0194C43.8766 45.0851 43.9605 45.1133 44.0375 45.0898C48.872 43.5943 53.7742 41.338 58.8349 37.6215C58.8792 37.5887 58.9072 37.5394 58.9119 37.4854C60.1456 24.7228 56.8456 13.6366 50.164 3.8088C50.1477 3.77596 50.1197 3.75246 50.0871 3.73838ZM19.7716 30.7613C16.8563 30.7613 14.4543 28.0849 14.4543 24.798C14.4543 21.511 16.8097 18.8346 19.7716 18.8346C22.7567 18.8346 25.1355 21.5345 25.0888 24.798C25.0888 28.0849 22.7333 30.7613 19.7716 30.7613ZM39.4315 30.7613C36.5163 30.7613 34.1143 28.0849 34.1143 24.798C34.1143 21.511 36.4697 18.8346 39.4315 18.8346C42.4167 18.8346 44.7954 21.5345 44.7488 24.798C44.7488 28.0849 42.4167 30.7613 39.4315 30.7613Z" fill="#FF2E47"/>
</svg>
