<svg width="50" height="38" viewBox="0 0 50 38" fill="none" xmlns="http://www.w3.org/2000/svg">
<path d="M41.7096 37.4557H8.29088C3.9305 37.4557 0.383545 33.9088 0.383545 29.5484V8.45104C0.383545 4.0912 3.93104 0.543701 8.29088 0.543701H41.7096C46.0694 0.543701 49.6164 4.0912 49.6164 8.45104V29.5484C49.6164 33.9088 46.0694 37.4557 41.7096 37.4557ZM8.29088 2.856C5.20563 2.856 2.69585 5.36578 2.69585 8.45104V29.5484C2.69585 32.6336 5.20563 35.144 8.29088 35.144H41.7096C44.7948 35.144 47.3046 32.6336 47.3046 29.5484V8.45104C47.3046 5.36578 44.7948 2.856 41.7096 2.856H8.29088Z" fill="#FF2E47"/>
<path d="M6.42496 8.56088C12.3351 14.32 18.2452 20.0786 24.1553 25.8378C25.2571 26.911 26.9479 25.224 25.8446 24.1485C19.9344 18.3899 14.0243 12.6308 8.11419 6.8722C7.01247 5.79837 5.3216 7.48596 6.42496 8.56088Z" fill="#FF2E47"/>
<path d="M25.8445 25.8379C31.7546 20.0793 37.6648 14.3202 43.5749 8.5616C44.6777 7.48668 42.9879 5.79855 41.8856 6.87237C35.9755 12.631 30.0654 18.3901 24.1553 24.1487C23.0525 25.2236 24.7422 26.9118 25.8445 25.8379Z" fill="#FF2E47"/>
<path d="M43.5099 29.9143C39.5773 26.1846 35.6441 22.4555 31.7115 18.7259C30.5961 17.6685 28.9041 19.3544 30.0223 20.4151C33.9549 24.1448 37.888 27.8739 41.8207 31.6035C42.936 32.6609 44.628 30.9745 43.5099 29.9143Z" fill="#FF2E47"/>
<path d="M8.28606 31.603C12.2187 27.8733 16.1518 24.1442 20.0844 20.4145C21.202 19.3544 19.5111 17.6673 18.3952 18.7253C14.4626 22.455 10.5294 26.1841 6.59683 29.9137C5.47924 30.9739 7.17012 32.6615 8.28606 31.603Z" fill="#FF2E47"/>
</svg>
