<svg width="49" height="48" viewBox="0 0 49 48" fill="none" xmlns="http://www.w3.org/2000/svg">
<path d="M24.2839 2.03159e-06C10.867 -0.00542332 0 10.8561 0 24.2622C0 34.8633 6.79796 43.8748 16.2652 47.1842C17.5401 47.5043 17.3448 46.5983 17.3448 45.9798V41.7752C9.98264 42.6378 9.68425 37.7658 9.19054 36.952C8.19227 35.2485 5.83225 34.8145 6.53754 34.0007C8.21398 33.138 9.92296 34.2177 11.9032 37.1419C13.3355 39.2632 16.1296 38.9052 17.5456 38.5525C17.8548 37.2776 18.5167 36.1382 19.4282 35.2539C11.8001 33.8867 8.62088 29.2318 8.62088 23.6979C8.62088 21.0124 9.50521 18.5438 11.2413 16.5527C10.1345 13.2704 11.3444 10.4601 11.5072 10.0423C14.6593 9.7602 17.9362 12.2993 18.1912 12.5C19.9816 12.0171 22.0269 11.7622 24.3164 11.7622C26.6168 11.7622 28.6675 12.028 30.4742 12.5163C31.0872 12.0497 34.1254 9.86871 37.0551 10.1346C37.2125 10.5523 38.3952 13.2975 37.3535 16.5365C39.1113 18.533 40.0065 21.0232 40.0065 23.7142C40.0065 29.2589 36.8056 33.9193 29.1558 35.2648C29.811 35.9091 30.3313 36.6776 30.6862 37.5253C31.0411 38.3729 31.2236 39.2828 31.2229 40.2018V46.3053C31.2663 46.7936 31.2229 47.2765 32.0367 47.2765C41.645 44.0375 48.5623 34.9609 48.5623 24.2676C48.5623 10.8561 37.6899 2.03159e-06 24.2839 2.03159e-06Z" fill="#FF2E47"/>
</svg>
