<svg width="49" height="49" viewBox="0 0 49 49" fill="none" xmlns="http://www.w3.org/2000/svg">
<path fill-rule="evenodd" clip-rule="evenodd" d="M23.3248 21.8323V21.7612C23.3103 21.7851 23.2902 21.8089 23.2776 21.8323H23.3248Z" fill="#FF2E47"/>
<path fill-rule="evenodd" clip-rule="evenodd" d="M0 0V48.6111H48.6111V0H0ZM15.1199 40.3848H7.90769V18.6865H15.1199V40.3848ZM11.5138 15.725H11.4661C9.04679 15.725 7.47863 14.0582 7.47863 11.9749C7.47863 9.84583 9.09263 8.22628 11.561 8.22628C14.0299 8.22628 15.5471 9.84583 15.5943 11.9749C15.5943 14.0582 14.0299 15.725 11.5138 15.725ZM41.1325 40.3848H33.9184V28.7762C33.9184 25.8605 32.8761 23.8702 30.2651 23.8702C28.271 23.8702 27.0861 25.2103 26.5641 26.5083C26.3744 26.972 26.3248 27.6166 26.3248 28.2668V40.3849H19.1093C19.1093 40.3849 19.206 20.7222 19.1093 18.6866H26.3248V21.7613C27.2834 20.2862 28.9942 18.1772 32.8265 18.1772C37.574 18.1772 41.1325 21.2777 41.1325 27.942V40.3848Z" fill="#FF2E47"/>
</svg>
