<svg width="36" height="50" viewBox="0 0 36 50" fill="none" xmlns="http://www.w3.org/2000/svg">
<path d="M17.9993 0C8.43191 0 0.648438 7.78461 0.648438 17.3522C0.648438 26.5619 16.3912 48.0789 17.0615 48.99L17.6871 49.8414C17.7602 49.9415 17.8767 50 17.9993 50C18.1237 50 18.2395 49.9415 18.3134 49.8414L18.9386 48.99C19.6093 48.0789 35.3516 26.5619 35.3516 17.3522C35.3516 7.78461 27.5669 0 17.9993 0ZM17.9993 11.1367C21.4273 11.1367 24.2148 13.9243 24.2148 17.3522C24.2148 20.7783 21.4272 23.5678 17.9993 23.5678C14.5733 23.5678 11.7837 20.7783 11.7837 17.3522C11.7837 13.9243 14.5732 11.1367 17.9993 11.1367Z" fill="#FF2E47"/>
</svg>
