<svg width="60" height="46" viewBox="0 0 60 46" fill="none" xmlns="http://www.w3.org/2000/svg">
<g clip-path="url(#clip0_29_15)">
<path d="M50.0871 4.24815C46.316 2.51781 42.2721 1.24298 38.0439 0.512829C37.9669 0.498737 37.89 0.533953 37.8503 0.604386C37.3302 1.5294 36.7542 2.73615 36.3507 3.68465C31.8031 3.00381 27.2787 3.00381 22.8243 3.68465C22.4208 2.71506 21.8238 1.5294 21.3014 0.604386C21.2617 0.536303 21.1848 0.501087 21.1078 0.512829C16.882 1.24065 12.8381 2.51548 9.06467 4.24815C9.032 4.26223 9.004 4.28573 8.98542 4.31623C1.31496 15.7757 -0.786301 26.9536 0.244507 37.9928C0.249171 38.0468 0.279488 38.0985 0.321467 38.1313C5.38222 41.8478 10.2844 44.1041 15.0956 45.5996C15.1726 45.6231 15.2542 45.5949 15.3032 45.5315C16.4412 43.9773 17.4557 42.3386 18.3256 40.6152C18.3769 40.5143 18.3279 40.3946 18.223 40.3546C16.6138 39.7442 15.0816 39 13.6077 38.1548C13.4911 38.0867 13.4818 37.92 13.589 37.8401C13.8992 37.6077 14.2094 37.3659 14.5056 37.1217C14.5592 37.0771 14.6338 37.0677 14.6968 37.0959C24.3798 41.5168 34.8628 41.5168 44.4316 37.0959C44.4946 37.0654 44.5693 37.0748 44.6252 37.1194C44.9214 37.3636 45.2316 37.6077 45.5441 37.8401C45.6513 37.92 45.6443 38.0867 45.5277 38.1548C44.0538 39.0164 42.5216 39.7442 40.9101 40.3523C40.8052 40.3922 40.7585 40.5143 40.8098 40.6152C41.6983 42.3361 42.7128 43.9749 43.8299 45.5291C43.8766 45.5949 43.9605 45.6231 44.0375 45.5996C48.872 44.1041 53.7742 41.8478 58.8349 38.1313C58.8792 38.0985 58.9072 38.0491 58.9119 37.9951C60.1456 25.2326 56.8456 14.1464 50.164 4.31856C50.1477 4.28573 50.1197 4.26223 50.0871 4.24815ZM19.7716 31.2711C16.8563 31.2711 14.4543 28.5946 14.4543 25.3077C14.4543 22.0208 16.8097 19.3444 19.7716 19.3444C22.7567 19.3444 25.1355 22.0443 25.0888 25.3077C25.0888 28.5946 22.7333 31.2711 19.7716 31.2711ZM39.4315 31.2711C36.5163 31.2711 34.1143 28.5946 34.1143 25.3077C34.1143 22.0208 36.4697 19.3444 39.4315 19.3444C42.4167 19.3444 44.7954 22.0443 44.7488 25.3077C44.7488 28.5946 42.4167 31.2711 39.4315 31.2711Z" fill="#FF6D7E"/>
</g>
<defs>
<clipPath id="clip0_29_15">
<rect width="59.1667" height="45.8333" fill="white" transform="translate(0 0.166504)"/>
</clipPath>
</defs>
</svg>
