<svg width="51" height="50" viewBox="0 0 51 50" fill="none" xmlns="http://www.w3.org/2000/svg">
<path d="M25.4225 1.36182C12.0056 1.35639 1.13867 12.2179 1.13867 25.624C1.13867 36.2251 7.93663 45.2366 17.4039 48.5461C18.6788 48.8662 18.4835 47.9601 18.4835 47.3416V43.137C11.1213 43.9996 10.8229 39.1277 10.3292 38.3139C9.33095 36.6103 6.97092 36.1763 7.67622 35.3625C9.35265 34.4998 11.0616 35.5795 13.0419 38.5037C14.4742 40.6251 17.2682 40.267 18.6842 39.9143C18.9935 38.6394 19.6554 37.5001 20.5668 36.6157C12.9388 35.2485 9.75955 30.5936 9.75955 25.0597C9.75955 22.3742 10.6439 19.9057 12.38 17.9146C11.2732 14.6322 12.4831 11.8219 12.6458 11.4041C15.798 11.122 19.0749 13.6611 19.3299 13.8618C21.1202 13.379 23.1656 13.124 25.4551 13.124C27.7554 13.124 29.8062 13.3898 31.6128 13.8781C32.2259 13.4115 35.2641 11.2305 38.1938 11.4964C38.3511 11.9141 39.5339 14.6593 38.4922 17.8983C40.25 19.8948 41.1452 22.385 41.1452 25.076C41.1452 30.6207 37.9442 35.2811 30.2945 36.6266C30.9497 37.2709 31.47 38.0394 31.8249 38.8871C32.1798 39.7348 32.3622 40.6447 32.3615 41.5636V47.6672C32.4049 48.1554 32.3615 48.6383 33.1753 48.6383C42.7836 45.3994 49.701 36.3228 49.701 25.6294C49.701 12.2179 38.8286 1.36182 25.4225 1.36182Z" fill="#FF6D7E"/>
</svg>
