<svg width="50" height="49" viewBox="0 0 50 49" fill="none" xmlns="http://www.w3.org/2000/svg">
<g clip-path="url(#clip0_29_3)">
<path fill-rule="evenodd" clip-rule="evenodd" d="M27.1581 22.221V22.1499C27.1435 22.1737 27.1234 22.1976 27.1108 22.221H27.1581Z" fill="#FF6D7E"/>
<path fill-rule="evenodd" clip-rule="evenodd" d="M0.833252 0.388672V48.9998H49.4444V0.388672H0.833252ZM15.9531 40.7735H8.74094V19.0752H15.9531V40.7735ZM12.347 16.1137H12.2994C9.88005 16.1137 8.31188 14.4469 8.31188 12.3636C8.31188 10.2345 9.92588 8.61495 12.3943 8.61495C14.8632 8.61495 16.3804 10.2345 16.4276 12.3636C16.4276 14.4469 14.8632 16.1137 12.347 16.1137ZM41.9657 40.7735H34.7516V29.1648C34.7516 26.2491 33.7093 24.2589 31.0983 24.2589C29.1043 24.2589 27.9194 25.5989 27.3974 26.897C27.2076 27.3607 27.158 28.0052 27.158 28.6554V40.7736H19.9425C19.9425 40.7736 20.0392 21.1109 19.9425 19.0753H27.158V22.15C28.1167 20.6749 29.8275 18.5659 33.6597 18.5659C38.4073 18.5659 41.9657 21.6663 41.9657 28.3307V40.7735Z" fill="#FF6D7E"/>
</g>
<defs>
<clipPath id="clip0_29_3">
<rect x="0.833252" y="0.388672" width="48.6111" height="48.6111" rx="5" fill="white"/>
</clipPath>
</defs>
</svg>
