<svg width="189" height="70" viewBox="0 0 189 70" fill="none" xmlns="http://www.w3.org/2000/svg">
<g clip-path="url(#clip0_26_118)">
<path d="M45.3484 57.0095L53.5997 59.4985C53.1564 61.5784 52.2358 63.556 50.9743 65.2949C49.815 66.8293 48.2807 68.0226 46.5417 68.8069C44.7687 69.5911 42.5184 70.0002 39.7906 70.0002C36.4833 70.0002 33.7556 69.5229 31.6757 68.5682C29.5617 67.6135 27.7546 65.9087 26.2203 63.4878C24.6859 61.067 23.9358 57.9642 23.9358 54.1795C23.9358 49.1332 25.2656 45.2462 27.9592 42.5526C30.6528 39.859 34.4375 38.4951 39.3474 38.4951C43.2003 38.4951 46.2008 39.2793 48.417 40.8137C50.5992 42.3821 52.2358 44.7689 53.3269 47.9739L45.0074 49.8151C44.8028 49.0991 44.4959 48.3831 44.0868 47.7694C43.5753 47.0533 42.9275 46.5078 42.1433 46.0986C41.3591 45.6895 40.4726 45.519 39.5861 45.519C37.438 45.519 35.8014 46.3714 34.6762 48.1103C33.8238 49.3719 33.3805 51.3836 33.3805 54.1113C33.3805 57.4868 33.892 59.8054 34.9148 61.067C35.9377 62.3285 37.3698 62.9423 39.2451 62.9423C41.0522 62.9423 42.4161 62.4308 43.3367 61.442C44.2573 60.385 44.9392 58.9189 45.3484 57.0095ZM64.6129 39.0066H74.0235V49.6787H84.3206V39.0066H93.7994V69.4888H84.3206V57.1459H74.0235V69.4888H64.6129V39.0066Z" fill="#FF6D7E"/>
<path d="M164.379 39.0063H173.79V61.9874H188.485V69.4886H164.345V39.0063H164.379Z" fill="#FF6D7E"/>
<path d="M133.794 20.9009L137.204 18.5141L141.398 24.481C142.114 25.4357 142.659 26.4586 143.069 27.5838C143.307 28.4362 143.239 29.3568 142.898 30.1751C142.455 31.198 141.739 32.0504 140.784 32.6642C139.659 33.4484 138.704 33.8916 137.886 34.028C137.102 34.1644 136.283 34.028 135.533 33.6871C134.715 33.2779 133.999 32.6983 133.453 31.9481L136.386 29.2204C136.624 29.5955 136.931 29.9364 137.272 30.2092C137.511 30.3797 137.784 30.482 138.09 30.482C138.329 30.482 138.568 30.3797 138.738 30.2433C139.079 30.0387 139.318 29.6296 139.284 29.2204C139.182 28.6408 138.943 28.0611 138.568 27.6179L133.794 20.9009ZM144.023 24.6856L147.126 22.2306C147.467 22.6398 147.91 22.9467 148.388 23.1172C149.07 23.3217 149.786 23.1853 150.365 22.7421C150.774 22.4693 151.115 22.0943 151.252 21.6169C151.456 21.0032 151.115 20.3212 150.502 20.1167C150.399 20.0826 150.297 20.0485 150.195 20.0485C149.786 20.0144 149.07 20.1849 148.013 20.6281C146.274 21.3441 144.91 21.6169 143.887 21.5146C142.898 21.4123 141.977 20.9009 141.432 20.0485C141.023 19.4688 140.818 18.7869 140.784 18.105C140.784 17.3208 140.989 16.5365 141.432 15.8887C142.08 14.9681 142.864 14.1839 143.819 13.5702C145.251 12.5814 146.512 12.104 147.603 12.104C148.694 12.104 149.717 12.6155 150.672 13.6724L147.603 16.0933C146.99 15.3091 145.83 15.1386 145.046 15.7523L144.944 15.8546C144.603 16.0592 144.364 16.3661 144.228 16.7411C144.126 17.0139 144.194 17.3208 144.364 17.5594C144.501 17.7299 144.705 17.8663 144.944 17.8663C145.217 17.9004 145.694 17.764 146.376 17.4571C148.081 16.7411 149.376 16.332 150.263 16.1956C151.013 16.0592 151.797 16.1274 152.513 16.4343C153.161 16.707 153.707 17.1844 154.082 17.764C154.559 18.4459 154.832 19.2643 154.866 20.1167C154.9 21.0032 154.661 21.8556 154.184 22.6057C153.57 23.5263 152.786 24.3105 151.865 24.9243C149.99 26.2199 148.456 26.7655 147.228 26.5609C145.899 26.3563 144.807 25.6744 144.023 24.6856Z" fill="#FF6D7E"/>
<path d="M154.006 37.2472C163.481 30.1074 166.402 18.0043 160.532 10.2142C154.661 2.42402 142.222 1.89682 132.747 9.03661C123.273 16.1764 120.351 28.2795 126.222 36.0696C132.092 43.8598 144.532 44.387 154.006 37.2472Z" stroke="#FF6D7E" stroke-width="4" stroke-miterlimit="10"/>
<path d="M97.3113 23.1857L106.279 22.6061C106.483 24.0722 106.858 25.1633 107.472 25.9475C108.461 27.175 109.825 27.7887 111.632 27.7887C112.962 27.7887 114.019 27.4819 114.735 26.834C115.416 26.3226 115.826 25.5043 115.826 24.6519C115.826 23.8335 115.451 23.0493 114.803 22.5379C114.121 21.9241 112.518 21.3104 109.995 20.7649C105.869 19.8443 102.903 18.6168 101.164 17.0483C99.4252 15.5822 98.4364 13.4341 98.5046 11.1497C98.5046 9.58122 98.982 8.01279 99.8685 6.71712C100.891 5.25098 102.289 4.0917 103.96 3.44386C105.767 2.65965 108.29 2.25049 111.461 2.25049C115.348 2.25049 118.315 2.96651 120.36 4.43266C122.406 5.86471 123.634 8.18327 124.009 11.3542L115.144 11.8657C114.905 10.5018 114.428 9.51303 113.643 8.8652C112.859 8.21737 111.836 7.9105 110.507 7.9105C109.415 7.9105 108.597 8.14917 108.052 8.59243C107.54 9.00158 107.199 9.61532 107.233 10.2972C107.233 10.8087 107.506 11.286 107.915 11.5929C108.359 12.0021 109.415 12.3771 111.086 12.7181C115.212 13.6046 118.144 14.4911 119.951 15.4117C121.758 16.3323 123.054 17.4575 123.838 18.7873C124.657 20.1511 125.066 21.7196 125.032 23.3221C125.032 25.2315 124.486 27.1409 123.395 28.7434C122.27 30.4142 120.701 31.7098 118.86 32.494C116.917 33.3464 114.462 33.7897 111.529 33.7897C106.347 33.7897 102.767 32.8009 100.755 30.7892C98.7433 28.7775 97.5499 26.2544 97.3113 23.1857ZM2.14808 33.2782V2.79603H17.8665C20.7647 2.79603 23.0151 3.03471 24.5494 3.54615C26.0497 4.0235 27.3794 5.0123 28.266 6.34206C29.2548 7.80821 29.7321 9.51303 29.698 11.286C29.8003 14.2865 28.266 17.1506 25.6405 18.6509C24.6176 19.2305 23.4925 19.6397 22.3332 19.8443C23.1856 20.0829 24.038 20.4921 24.7881 20.9694C25.3678 21.4468 25.8451 21.9923 26.2884 22.572C26.7998 23.1516 27.2431 23.7994 27.6181 24.4814L32.187 33.3123H21.4808L16.4345 23.9358C15.7867 22.7424 15.2411 21.9582 14.7297 21.5832C14.0477 21.1058 13.2294 20.8671 12.4111 20.8671H11.5928V33.2442H2.14808V33.2782ZM11.5928 15.1389H15.5821C16.4345 15.0708 17.2528 14.9344 18.0711 14.7298C18.6849 14.6275 19.2304 14.2865 19.6055 13.7751C20.5261 12.5476 20.3897 10.8087 19.2645 9.75171C18.6508 9.24026 17.4574 8.96749 15.7526 8.96749H11.5928V15.1389ZM0 59.3961L8.96737 58.8165C9.17194 60.2826 9.547 61.3737 10.1607 62.1579C11.1154 63.3854 12.5134 64.0332 14.3205 64.0332C15.6503 64.0332 16.7073 63.7264 17.4233 63.0785C18.1052 62.533 18.5144 61.7488 18.5144 60.8964C18.5144 60.0781 18.1393 59.2938 17.4915 58.7824C16.8095 58.1686 15.207 57.5549 12.6498 57.0094C8.52411 56.0888 5.55772 54.8613 3.8188 53.2929C2.07988 51.8267 1.09109 49.6786 1.15928 47.3942C1.15928 45.8257 1.63663 44.2573 2.52314 42.9616C3.54603 41.4955 4.94398 40.3362 6.61471 39.6884C8.42182 38.9042 10.945 38.495 14.1159 38.495C18.0029 38.495 20.9693 39.211 23.0151 40.6772C25.0609 42.1433 26.2543 44.4278 26.6293 47.5988L17.7642 48.1102C17.5256 46.7463 17.0482 45.7575 16.264 45.1097C15.5139 44.4619 14.4569 44.155 13.1271 44.1891C12.036 44.1891 11.2177 44.4278 10.6722 44.9051C10.1266 45.3143 9.81978 45.928 9.85387 46.61C9.85387 47.1214 10.1266 47.5988 10.5358 47.9056C10.9791 48.3148 12.036 48.6898 13.7068 49.0308C17.8324 49.9173 20.7647 50.8038 22.5718 51.7244C24.379 52.645 25.6746 53.7702 26.4588 55.1C27.2772 56.4638 27.6863 58.0323 27.6863 59.6007C27.6863 61.5101 27.1067 63.3854 26.0497 64.9879C24.9245 66.6587 23.3561 67.9543 21.5149 68.7385C19.5714 69.591 17.1164 70.0342 14.1841 70.0342C9.00146 70.0342 5.42134 69.0454 3.40964 67.0337C1.39795 64.9879 0.272772 62.4648 0 59.3961H0Z" fill="#FF6D7E"/>
<path d="M92.5037 54.2476C92.5037 49.2695 93.9016 45.3825 96.6634 42.6207C99.4252 39.8589 103.312 38.4609 108.256 38.4609C113.337 38.4609 117.224 39.8248 119.985 42.5525C122.747 45.2802 124.111 49.099 124.111 54.0089C124.111 57.589 123.497 60.4872 122.304 62.7717C121.145 65.0221 119.338 66.8633 117.121 68.0907C114.837 69.3523 112.007 70.0001 108.631 70.0001C105.188 70.0001 102.358 69.4546 100.107 68.3635C97.7886 67.2042 95.8792 65.3971 94.6176 63.1809C93.2197 60.7941 92.5037 57.8277 92.5037 54.2476ZM101.914 54.2817C101.914 57.3504 102.494 59.5666 103.619 60.9305C104.744 62.2603 106.313 62.9422 108.29 62.9422C110.302 62.9422 111.87 62.2944 112.996 60.9646C114.121 59.6348 114.666 57.2822 114.666 53.8725C114.666 51.0084 114.087 48.8945 112.927 47.5988C111.768 46.269 110.2 45.6212 108.222 45.6212C106.483 45.553 104.812 46.3031 103.653 47.6329C102.494 48.9626 101.914 51.1789 101.914 54.2817ZM133.76 54.2476C133.76 49.2695 135.158 45.3825 137.92 42.6207C140.682 39.8589 144.569 38.4609 149.513 38.4609C154.593 38.4609 158.514 39.8248 161.242 42.5525C163.97 45.2802 165.368 49.099 165.368 54.0089C165.368 57.589 164.754 60.4872 163.561 62.7717C162.401 65.0221 160.594 66.8633 158.378 68.0907C156.094 69.3523 153.264 70.0001 149.888 70.0001C146.444 70.0001 143.614 69.4546 141.364 68.3635C139.045 67.2042 137.136 65.3971 135.874 63.1809C134.476 60.7941 133.76 57.8277 133.76 54.2476ZM143.171 54.2817C143.171 57.3504 143.751 59.5666 144.876 60.9305C146.001 62.2603 147.569 62.9422 149.547 62.9422C151.559 62.9422 153.127 62.2944 154.252 60.9646C155.378 59.6348 155.923 57.2822 155.923 53.8725C155.923 51.0084 155.343 48.8945 154.184 47.5988C153.025 46.269 151.456 45.6212 149.479 45.6212C147.74 45.553 146.035 46.3031 144.91 47.6329C143.751 48.9626 143.171 51.1789 143.171 54.2817Z" fill="#FF6D7E"/>
</g>
<defs>
<clipPath id="clip0_26_118">
<rect width="188.485" height="70" fill="white"/>
</clipPath>
</defs>
</svg>
