<svg width="49" height="49" viewBox="0 0 49 49" fill="none" xmlns="http://www.w3.org/2000/svg">
<path d="M24.261 0.59375C30.8399 0.634029 36.4521 2.79567 41.1379 7.21295C45.8103 11.6302 48.3613 17.1082 48.6701 23.5394C48.9923 30.4137 46.7904 36.4287 42.024 41.4099C37.3382 46.3105 31.5515 48.8347 24.7577 48.9018C18.4339 48.9689 12.8888 46.8476 8.24331 42.5646C2.76535 37.5028 0.133782 31.1656 0.415736 23.7139C0.643984 17.4707 3.0473 12.1001 7.46458 7.6963C12.1235 3.03735 17.8163 0.714587 24.261 0.59375Z" fill="#FF6D7E"/>
<path d="M17.1182 28.0103C15.8024 27.6075 14.4732 27.1913 13.1574 26.7885C12.5129 26.5871 11.8684 26.3857 11.224 26.1843C10.9823 26.1037 10.7541 26.0232 10.5527 25.8755C10.1767 25.5935 10.1499 25.2444 10.4721 24.8954C10.6869 24.6537 10.9555 24.4926 11.2508 24.3717C12.0296 24.0629 12.8083 23.7541 13.587 23.4453C18.9576 21.3776 24.3281 19.2966 29.7121 17.2289C31.4172 16.571 33.109 15.9131 34.8141 15.2552C35.0424 15.1612 35.284 15.1075 35.5391 15.1478C36.0493 15.2284 36.4387 15.6446 36.4924 16.1816C36.5193 16.477 36.5058 16.7724 36.4521 17.0678C35.7942 20.1558 35.1363 23.2573 34.4784 26.3454C33.9414 28.8964 33.3909 31.4474 32.8539 34.0119C32.733 34.5892 32.6122 35.1665 32.4913 35.7439C32.4376 36.0258 32.3571 36.2943 32.2228 36.5494C31.9543 37.0462 31.5246 37.2342 30.9742 37.1268C30.6385 37.0596 30.3431 36.9119 30.0746 36.7106C28.2218 35.3411 26.3689 33.9581 24.5027 32.5887C24.4221 32.5215 24.3281 32.4678 24.2476 32.4141C23.9253 32.3201 23.6971 32.0785 23.442 31.8905C22.5558 31.246 21.6697 30.5747 20.7836 29.9302C20.7164 29.8765 20.6493 29.8228 20.5956 29.7557C20.515 29.6214 20.5956 29.5409 20.6761 29.4603C21.8845 28.3862 23.0795 27.2852 24.2878 26.2111C25.1606 25.419 26.0467 24.6268 26.9194 23.8347C27.7921 23.0425 28.6648 22.2638 29.5375 21.4851C30.2223 20.8674 30.907 20.2633 31.5784 19.6456C31.6321 19.5919 31.6858 19.5382 31.7395 19.4845C31.7797 19.4308 31.8335 19.3771 31.8066 19.31C31.7797 19.2294 31.6992 19.2294 31.6321 19.2294C31.3904 19.2026 31.189 19.2966 30.9876 19.4174C30.2491 19.8605 29.5375 20.3304 28.8125 20.7869C26.6106 22.1698 24.3952 23.5661 22.1933 24.9491C20.6761 25.9023 19.159 26.8556 17.6418 27.8223C17.4672 27.9163 17.3464 28.0908 17.1182 28.0103Z" fill="#268ADB"/>
<path d="M17.1182 28.0106C17.4807 27.8629 17.7895 27.6212 18.1251 27.4198C19.0918 26.8156 20.0585 26.2115 21.0252 25.5938C21.71 25.1642 22.3813 24.7211 23.066 24.2915C24.1939 23.5799 25.3351 22.8683 26.4763 22.1567C27.2685 21.6599 28.0607 21.1497 28.8662 20.6395C29.5644 20.1964 30.2626 19.7534 30.9607 19.3103C31.189 19.176 31.4172 19.0955 31.6992 19.1223C31.7798 19.1358 31.8603 19.1358 31.8872 19.2163C31.9274 19.2969 31.9006 19.3774 31.8335 19.458C31.6723 19.6191 31.5247 19.7937 31.3367 19.9413C31.001 20.2099 30.7056 20.5187 30.3834 20.8006C29.8598 21.2437 29.3764 21.727 28.8528 22.1701C28.638 22.3581 28.4366 22.5595 28.2218 22.7475C27.913 23.0026 27.6176 23.3114 27.3222 23.5799C26.8657 23.9961 26.3958 24.3989 25.9393 24.8017C25.7379 24.9897 25.5231 25.1776 25.3351 25.3656C24.8383 25.8355 24.3147 26.2786 23.8179 26.7485C23.2137 27.299 22.5961 27.836 22.0054 28.4C21.5757 28.8027 21.1192 29.1787 20.6762 29.568C20.609 29.6217 20.609 29.6755 20.6493 29.7426C20.5553 31.2598 20.4479 32.7769 20.3539 34.2941C20.3271 34.6969 20.2734 35.0863 20.2868 35.4891C20.2868 35.6099 20.2868 35.7173 20.1928 35.8113C20.1122 35.8382 20.0183 35.8382 19.9377 35.8382C19.696 35.8247 19.5215 35.7039 19.4544 35.4756C19.3872 35.234 19.3067 35.0057 19.2395 34.764C18.5816 32.6024 17.9237 30.4273 17.2659 28.2657C17.1987 28.1717 17.1584 28.0911 17.1182 28.0106Z" fill="#268ADB"/>
<path d="M20.1525 35.7975C20.1123 35.2739 20.2062 34.7502 20.2197 34.24C20.2465 33.6761 20.3002 33.1122 20.3271 32.5483C20.3674 31.971 20.4076 31.3936 20.4479 30.8297C20.4613 30.5343 20.4882 30.239 20.4882 29.957C20.4882 29.863 20.5151 29.7959 20.609 29.7422C21.6966 30.5478 22.7841 31.3399 23.8582 32.1455C23.9791 32.2395 24.1133 32.3066 24.2073 32.4275C23.2003 33.4076 22.1799 34.3877 21.1729 35.3678C20.9044 35.6364 20.5822 35.8512 20.1525 35.7975Z" fill="#268ADB"/>
</svg>
