<svg width="100" height="100" viewBox="0 0 100 100" fill="none" xmlns="http://www.w3.org/2000/svg">
<path d="M50.0003 0C22.4308 0 0.00195312 22.4313 0.00195312 49.9992C0.00195312 77.572 22.4308 100 50.0003 100C77.5699 100 99.9979 77.572 99.9979 49.9992C99.9979 22.4313 77.5699 0 50.0003 0ZM73.1741 60.1209L71.3576 61.9391C70.9482 62.3468 70.23 62.3468 69.8223 61.9391L50.5848 42.7031C50.4324 42.5499 50.233 42.4737 50.0336 42.4737C49.8342 42.4737 49.6331 42.5499 49.4799 42.7031L30.2724 61.9075C29.8663 62.3119 29.1481 62.3119 28.7404 61.9075L26.9222 60.0893C26.5007 59.6686 26.5007 58.9788 26.9222 58.5589L49.2457 36.2363C49.4475 36.0369 49.7183 35.9258 50.0555 35.9258C50.3465 35.9258 50.6188 36.0369 50.8182 36.2363L73.1733 58.5906C73.5956 59.0129 73.5956 59.7002 73.1741 60.1209Z" fill="#268ADB"/>
</svg>
